<svg width="16" height="16" viewBox="0 0 16 16" fill="none" xmlns="http://www.w3.org/2000/svg">
<rect width="16" height="16" rx="4" fill="#5865F2"/>
<path d="M3.83486 4.1139C4.61164 3.75047 5.44221 3.48634 6.31055 3.33594C6.41719 3.52874 6.54178 3.78807 6.62768 3.99436C7.55075 3.85555 8.46533 3.85555 9.37142 3.99436C9.4573 3.78807 9.58472 3.52874 9.69232 3.33594C10.5616 3.48634 11.3931 3.75144 12.1699 4.11583C13.7367 6.48343 14.1614 8.79223 13.949 11.0682C12.9099 11.8443 11.9028 12.3157 10.9127 12.6242C10.6683 12.2877 10.4502 11.9301 10.2624 11.5531C10.6201 11.4172 10.9627 11.2495 11.2865 11.0547C11.2006 10.9911 11.1166 10.9246 11.0354 10.8562C9.0609 11.7797 6.91555 11.7797 4.96463 10.8562C4.88252 10.9246 4.79852 10.9911 4.71358 11.0547C5.03826 11.2504 5.38181 11.4182 5.73952 11.5541C5.5517 11.9301 5.33462 12.2887 5.08922 12.6251C4.09818 12.3166 3.09017 11.8452 2.051 11.0682C1.80182 8.42976 2.47667 6.14217 3.83486 4.1139ZM9.99341 9.66851C10.5861 9.66851 11.0722 9.11516 11.0722 8.44132C11.0722 7.76748 10.5965 7.21318 9.99341 7.21318C9.39029 7.21318 8.90422 7.76651 8.9146 8.44132C8.91366 9.11516 9.39029 9.66851 9.99341 9.66851ZM6.00663 9.66851C6.59936 9.66851 7.08544 9.11516 7.08544 8.44132C7.08544 7.76748 6.60975 7.21318 6.00663 7.21318C5.40352 7.21318 4.91744 7.76651 4.92782 8.44132C4.92782 9.11516 5.40352 9.66851 6.00663 9.66851Z" fill="white"/>
</svg>
