<svg width="16" height="16" viewBox="0 0 16 16" fill="none" xmlns="http://www.w3.org/2000/svg">
<rect width="16" height="16" rx="4" fill="#73A1FB"/>
<path d="M13.728 4.22149C13.5395 4.3051 13.3457 4.37567 13.1476 4.43297C13.3821 4.1678 13.5609 3.8558 13.67 3.51439C13.6945 3.43786 13.6691 3.3541 13.6062 3.30404C13.5434 3.25395 13.4561 3.24795 13.3869 3.28894C12.9663 3.53839 12.5126 3.71766 12.0368 3.82247C11.5575 3.35417 10.9066 3.08764 10.2337 3.08764C8.81323 3.08764 7.6576 4.24324 7.6576 5.66364C7.6576 5.77551 7.66468 5.88677 7.67869 5.99648C5.91606 5.84172 4.27736 4.97536 3.15208 3.59501C3.11198 3.54582 3.0502 3.51929 2.98694 3.52437C2.92366 3.52932 2.86678 3.56501 2.83481 3.61988C2.60658 4.01149 2.48592 4.45941 2.48592 4.91515C2.48592 5.53586 2.70752 6.12478 3.099 6.58497C2.97996 6.54374 2.86446 6.49223 2.75421 6.43103C2.69503 6.39808 2.6228 6.39859 2.56399 6.4323C2.50516 6.46602 2.46827 6.52802 2.4667 6.5958C2.46642 6.60721 2.46642 6.61862 2.46642 6.6302C2.46642 7.55671 2.96508 8.39087 3.72747 8.84551C3.66197 8.83897 3.59653 8.82948 3.53149 8.81705C3.46443 8.80423 3.39551 8.82774 3.35029 8.87888C3.30501 8.92998 3.29001 9.0012 3.3109 9.06624C3.59308 9.94728 4.31962 10.5953 5.19794 10.7929C4.46945 11.2492 3.63639 11.4881 2.76187 11.4881C2.57939 11.4881 2.39588 11.4774 2.21628 11.4562C2.12705 11.4456 2.04174 11.4982 2.01134 11.5831C1.98094 11.668 2.01317 11.7626 2.08906 11.8113C3.21253 12.5316 4.51157 12.9124 5.8457 12.9124C8.46841 12.9124 10.1091 11.6756 11.0236 10.6381C12.164 9.34437 12.818 7.63199 12.818 5.94004C12.818 5.86935 12.817 5.79799 12.8148 5.72683C13.2647 5.38786 13.6521 4.97761 13.9673 4.50609C14.0152 4.43449 14.01 4.33983 13.9545 4.27392C13.8992 4.2079 13.8068 4.18657 13.728 4.22149Z" fill="white"/>
</svg>
