<svg width="45" height="44" viewBox="0 0 45 44" fill="none" xmlns="http://www.w3.org/2000/svg">
<g clip-path="url(#clip0_405_4277)">
<path d="M12.7556 0H8.75562V4H12.7556V0Z" fill="#5555FF"/>
<path d="M36.7556 0H32.7556V4H36.7556V0Z" fill="#5555FF"/>
<path d="M16.7556 4H12.7556V8H16.7556V4Z" fill="#5555FF"/>
<path d="M32.7556 4H28.7556V8H32.7556V4Z" fill="#5555FF"/>
<path d="M16.7556 8H12.7556V12H16.7556V8Z" fill="#5555FF"/>
<path d="M20.7556 8H16.7556V12H20.7556V8Z" fill="#3333DD"/>
<path d="M24.7556 8H20.7556V12H24.7556V8Z" fill="#5555FF"/>
<path d="M28.7556 8H24.7556V12H28.7556V8Z" fill="#3333DD"/>
<path d="M32.7556 8H28.7556V12H32.7556V8Z" fill="#5555FF"/>
<path d="M12.7556 12H8.75562V16H12.7556V12Z" fill="#5555FF"/>
<path d="M16.7556 12H12.7556V16H16.7556V12Z" fill="#5555FF"/>
<path d="M20.7556 12H16.7556V16H20.7556V12Z" fill="#5555FF"/>
<path d="M24.7556 12H20.7556V16H24.7556V12Z" fill="#5555FF"/>
<path d="M28.7556 12H24.7556V16H28.7556V12Z" fill="#5555FF"/>
<path d="M32.7556 12H28.7556V16H32.7556V12Z" fill="#5555FF"/>
<path d="M36.7556 12H32.7556V16H36.7556V12Z" fill="#5555FF"/>
<path d="M8.75562 16H4.75562V20H8.75562V16Z" fill="#5555FF"/>
<path d="M12.7556 16H8.75562V20H12.7556V16Z" fill="#5555FF"/>
<path d="M16.7556 16H12.7556V20H16.7556V16Z" fill="#F4F4F4"/>
<path d="M20.7556 16H16.7556V20H20.7556V16Z" fill="#F4F4F4"/>
<path d="M24.7556 16H20.7556V20H24.7556V16Z" fill="#5555FF"/>
<path d="M28.7556 16H24.7556V20H28.7556V16Z" fill="#5555FF"/>
<path d="M32.7556 16H28.7556V20H32.7556V16Z" fill="#F4F4F4"/>
<path d="M36.7556 16H32.7556V20H36.7556V16Z" fill="#F4F4F4"/>
<path d="M40.7556 16H36.7556V20H40.7556V16Z" fill="#5555FF"/>
<path d="M8.75562 20H4.75562V24H8.75562V20Z" fill="#5555FF"/>
<path d="M12.7556 20H8.75562V24H12.7556V20Z" fill="#5555FF"/>
<path d="M16.7556 20H12.7556V24H16.7556V20Z" fill="#F4F4F4"/>
<path d="M20.7556 20H16.7556V24H20.7556V20Z" fill="#FF55FF"/>
<path d="M24.7556 20H20.7556V24H24.7556V20Z" fill="#5555FF"/>
<path d="M28.7556 20H24.7556V24H28.7556V20Z" fill="#5555FF"/>
<path d="M32.7556 20H28.7556V24H32.7556V20Z" fill="#F4F4F4"/>
<path d="M36.7556 20H32.7556V24H36.7556V20Z" fill="#FF55FF"/>
<path d="M40.7556 20H36.7556V24H40.7556V20Z" fill="#5555FF"/>
<path d="M4.75561 24H0.755615V28H4.75561V24Z" fill="#3333DD"/>
<path d="M8.75562 24H4.75562V28H8.75562V24Z" fill="#3333DD"/>
<path d="M12.7556 24H8.75562V28H12.7556V24Z" fill="#3333DD"/>
<path d="M16.7556 24H12.7556V28H16.7556V24Z" fill="#3333DD"/>
<path d="M20.7556 24H16.7556V28H20.7556V24Z" fill="#3333DD"/>
<path d="M24.7556 24H20.7556V28H24.7556V24Z" fill="#3333DD"/>
<path d="M28.7556 24H24.7556V28H28.7556V24Z" fill="#3333DD"/>
<path d="M32.7556 24H28.7556V28H32.7556V24Z" fill="#3333DD"/>
<path d="M36.7556 24H32.7556V28H36.7556V24Z" fill="#3333DD"/>
<path d="M40.7556 24H36.7556V28H40.7556V24Z" fill="#3333DD"/>
<path d="M44.7556 24H40.7556V28H44.7556V24Z" fill="#3333DD"/>
<path d="M12.7556 28H8.75562V32H12.7556V28Z" fill="#3333DD"/>
<path d="M20.7556 28H16.7556V32H20.7556V28Z" fill="#5555FF"/>
<path d="M28.7556 28H24.7556V32H28.7556V28Z" fill="#5555FF"/>
<path d="M36.7556 28H32.7556V32H36.7556V28Z" fill="#3333DD"/>
<path d="M12.7556 32H8.75562V36H12.7556V32Z" fill="#3333DD"/>
<path d="M20.7556 32H16.7556V36H20.7556V32Z" fill="#5555FF"/>
<path d="M28.7556 32H24.7556V36H28.7556V32Z" fill="#5555FF"/>
<path d="M36.7556 32H32.7556V36H36.7556V32Z" fill="#3333DD"/>
<path d="M20.7556 36H16.7556V40H20.7556V36Z" fill="#5555FF"/>
<path d="M28.7556 36H24.7556V40H28.7556V36Z" fill="#5555FF"/>
<path d="M16.7556 40H12.7556V44H16.7556V40Z" fill="#5555FF"/>
<path d="M20.7556 40H16.7556V44H20.7556V40Z" fill="#5555FF"/>
<path d="M28.7556 40H24.7556V44H28.7556V40Z" fill="#5555FF"/>
<path d="M32.7556 40H28.7556V44H32.7556V40Z" fill="#5555FF"/>
</g>
<defs>
<clipPath id="clip0_405_4277">
<rect width="44" height="44" fill="white" transform="translate(0.755615)"/>
</clipPath>
</defs>
</svg>
