<svg width="44" height="45" viewBox="0 0 44 45" fill="none" xmlns="http://www.w3.org/2000/svg">
<g clip-path="url(#clip0_405_4341)">
<path d="M44 22.0586C44 34.2089 34.1503 44.0586 22 44.0586C9.84974 44.0586 0 34.2089 0 22.0586C0 9.90833 9.84974 0.0585938 22 0.0585938C34.1503 0.0585938 44 9.90833 44 22.0586Z" fill="#5555FF"/>
<path d="M22.1104 31.4505C21.7781 27.8348 22.305 22.9619 24.4363 20.601C26.6809 21.0987 31.1701 19.5628 32.8026 16.4479C34.2829 13.6233 34.0146 9.47822 34.8431 8.34961C25.0824 8.34953 23.4629 18.439 20.6679 25.9949C18.6012 20.4082 12.1154 16.6436 6.47949 18.9399C8.77078 20.5237 10.1995 24.4293 13.304 24.7789C14.2808 24.8889 16.0547 24.7789 17.223 22.5708C19.9877 24.8166 19.5847 27.5399 19.2253 31.4505C19.0803 33.0288 18.5342 34.5299 18.6144 35.782C18.7295 37.9934 22.6062 37.9934 22.7213 35.782C22.8015 34.5299 22.2555 33.0288 22.1104 31.4505Z" fill="#53DB53"/>
</g>
<defs>
<clipPath id="clip0_405_4341">
<rect width="44" height="44" fill="white" transform="translate(0 0.0585938)"/>
</clipPath>
</defs>
</svg>
